<svg xmlns="http://www.w3.org/2000/svg" viewBox="0 0 100 100">
  <defs>
    <linearGradient id="bookGradient" x1="0%" y1="0%" x2="100%" y2="100%">
      <stop offset="0%" style="stop-color:#059669;stop-opacity:1" />
      <stop offset="100%" style="stop-color:#10b981;stop-opacity:1" />
    </linearGradient>
  </defs>

  <!-- Background circle -->
  <circle cx="50" cy="50" r="48" fill="url(#bookGradient)"/>

  <!-- Book shape -->
  <g transform="translate(50, 50)">
    <!-- Left page -->
    <path d="M -15,-20 L -15,20 L -2,22 L -2,-18 Z" fill="#ffffff" opacity="0.95"/>

    <!-- Right page -->
    <path d="M 2,-18 L 2,22 L 15,20 L 15,-20 Z" fill="#ffffff" opacity="0.95"/>

    <!-- Book spine -->
    <path d="M -2,-18 L -2,22 L 2,22 L 2,-18 Z" fill="#f0fdf4" opacity="0.9"/>

    <!-- Decorative lines on left page -->
    <line x1="-12" y1="-12" x2="-5" y2="-12" stroke="#059669" stroke-width="1" opacity="0.6"/>
    <line x1="-12" y1="-7" x2="-5" y2="-7" stroke="#059669" stroke-width="1" opacity="0.6"/>
    <line x1="-12" y1="-2" x2="-5" y2="-2" stroke="#059669" stroke-width="1" opacity="0.6"/>

    <!-- Decorative lines on right page -->
    <line x1="5" y1="-12" x2="12" y2="-12" stroke="#059669" stroke-width="1" opacity="0.6"/>
    <line x1="5" y1="-7" x2="12" y2="-7" stroke="#059669" stroke-width="1" opacity="0.6"/>
    <line x1="5" y1="-2" x2="12" y2="-2" stroke="#059669" stroke-width="1" opacity="0.6"/>

    <!-- Small star decoration on spine -->
    <circle cx="0" cy="0" r="2" fill="#10b981"/>
  </g>
</svg>
